<?xml version="1.0" encoding="utf-8"?>
<!-- Generator: Adobe Illustrator 19.0.0, SVG Export Plug-In . SVG Version: 6.00 Build 0)  -->
<svg version="1.1" id="Слой_1" xmlns="http://www.w3.org/2000/svg" xmlns:xlink="http://www.w3.org/1999/xlink" x="0px" y="0px"
	 viewBox="0 0 480 352" style="enable-background:new 0 0 480 352;" xml:space="preserve">
<g>
	<g>
		<path d="M475.9,165.3l-144-160C328.9,1.9,324.6,0,320,0h-96c-6.3,0-12,3.7-14.6,9.5c-2.6,5.8-1.5,12.5,2.7,17.2L346.5,176
			L212.1,325.3c-4.2,4.7-5.3,11.5-2.7,17.2c2.6,5.8,8.3,9.5,14.6,9.5h96c4.5,0,8.8-2,11.9-5.3l144-160
			C481.4,180.6,481.4,171.4,475.9,165.3z"/>
	</g>
</g>
<g>
	<g>
		<path d="M267.9,165.3l-144-160C120.8,1.9,116.6,0,112,0H16C9.7,0,4,3.7,1.4,9.5C-1.2,15.3-0.1,22,4.1,26.7L138.5,176L4.1,325.3
			c-4.2,4.7-5.3,11.5-2.7,17.2C4,348.3,9.7,352,16,352h96c4.5,0,8.8-2,11.9-5.3l144-160C273.4,180.6,273.4,171.4,267.9,165.3z"/>
	</g>
</g>
</svg>
