<?xml version="1.0" encoding="utf-8"?>
<!-- Generator: Adobe Illustrator 19.0.0, SVG Export Plug-In . SVG Version: 6.00 Build 0)  -->
<svg version="1.1" id="Слой_1" xmlns="http://www.w3.org/2000/svg" xmlns:xlink="http://www.w3.org/1999/xlink" x="0px" y="0px"
	 viewBox="0 0 384 320" style="enable-background:new 0 0 384 320;" xml:space="preserve">
<path id="XMLID_1_" d="M16,176h319.2L213,292.4c-6.4,6.1-6.6,16.2-0.6,22.6c6.1,6.4,16.2,6.6,22.6,0.6l139.6-133
	c6-6,9.4-14.1,9.4-22.6c0-8.5-3.3-16.6-9.7-22.9L235,4.4c-3.1-3-7.1-4.4-11-4.4c-4.2,0-8.4,1.7-11.6,5c-6.1,6.4-5.8,16.5,0.6,22.6
	L335.7,144H16c-8.8,0-16,7.2-16,16S7.2,176,16,176L16,176z"/>
</svg>
