<?xml version="1.0" encoding="utf-8"?>
<!-- Generator: Adobe Illustrator 19.0.0, SVG Export Plug-In . SVG Version: 6.00 Build 0)  -->
<svg version="1.1" id="Слой_1" xmlns="http://www.w3.org/2000/svg" xmlns:xlink="http://www.w3.org/1999/xlink" x="0px" y="0px"
	 viewBox="0 0 512 341.3" style="enable-background:new 0 0 512 341.3;" xml:space="preserve">
<g>
	<g>
		<path d="M508.9,163.1l-160-160c-3.1-3-7.6-4-11.6-2.3c-4,1.6-6.6,5.5-6.6,9.9V32c0,2.8,1.1,5.5,3.1,7.5l109.8,109.8H10.7
			C4.8,149.3,0,154.1,0,160v21.3c0,5.9,4.8,10.7,10.7,10.7h432.9L333.8,301.8c-2,2-3.1,4.7-3.1,7.5v21.3c0,4.3,2.6,8.2,6.6,9.9
			c1.3,0.6,2.7,0.8,4.1,0.8c2.8,0,5.5-1.1,7.5-3.1l160-160C513,174,513,167.3,508.9,163.1z"/>
	</g>
</g>
</svg>
