<svg height="469pt" viewBox="0 0 469 469.33333" width="469pt" xmlns="http://www.w3.org/2000/svg"><path d="M233.766 0C111.356 0 10.96 93.738.168 213.332h190.934v-64a21.368 21.368 0 0 1 13.16-19.71 21.334 21.334 0 0 1 23.254 4.628l85.332 85.336c8.343 8.34 8.343 21.82 0 30.164l-85.332 85.332a21.327 21.327 0 0 1-23.254 4.629A21.364 21.364 0 0 1 191.102 320v-64H.168c10.793 119.594 111.187 213.332 233.598 213.332 129.601 0 234.668-105.066 234.668-234.664C468.434 105.066 363.367 0 233.766 0zm0 0"/></svg>