<svg height="512" viewBox="0 0 384 384" width="512" xmlns="http://www.w3.org/2000/svg"><path d="M176 288c0 8.832 7.168 16 16 16s16-7.168 16-16V96c0-8.832-7.168-16-16-16s-16 7.168-16 16zm0 0M16 96c-8.832 0-16 7.168-16 16v160c0 8.832 7.168 16 16 16s16-7.168 16-16V112c0-8.832-7.168-16-16-16zm0 0M152 256V128c0-8.832-7.168-16-16-16s-16 7.168-16 16v128c0 8.832 7.168 16 16 16s16-7.168 16-16zm0 0M80 240c8.832 0 16-7.168 16-16v-64c0-8.832-7.168-16-16-16s-16 7.168-16 16v64c0 8.832 7.168 16 16 16zm0 0M264 256V128c0-8.832-7.168-16-16-16s-16 7.168-16 16v128c0 8.832 7.168 16 16 16s16-7.168 16-16zm0 0M368 96c-8.832 0-16 7.168-16 16v160c0 8.832 7.168 16 16 16s16-7.168 16-16V112c0-8.832-7.168-16-16-16zm0 0M304 144c-8.832 0-16 7.168-16 16v64c0 8.832 7.168 16 16 16s16-7.168 16-16v-64c0-8.832-7.168-16-16-16zm0 0M176 368c0 8.832 7.168 16 16 16s16-7.168 16-16v-16c0-8.832-7.168-16-16-16s-16 7.168-16 16zm0 0M192 48c8.832 0 16-7.168 16-16V16c0-8.832-7.168-16-16-16s-16 7.168-16 16v16c0 8.832 7.168 16 16 16zm0 0"/></svg>