<svg xmlns="http://www.w3.org/2000/svg" viewBox="0 0 480 352"><path d="M475.9 165.3l-144-160c-3-3.4-7.3-5.3-11.9-5.3h-96c-6.3 0-12 3.7-14.6 9.5-2.6 5.8-1.5 12.5 2.7 17.2L346.5 176 212.1 325.3c-4.2 4.7-5.3 11.5-2.7 17.2 2.6 5.8 8.3 9.5 14.6 9.5h96c4.5 0 8.8-2 11.9-5.3l144-160c5.5-6.1 5.5-15.3 0-21.4z"/><path d="M267.9 165.3l-144-160C120.8 1.9 116.6 0 112 0H16C9.7 0 4 3.7 1.4 9.5-1.2 15.3-.1 22 4.1 26.7L138.5 176 4.1 325.3c-4.2 4.7-5.3 11.5-2.7 17.2C4 348.3 9.7 352 16 352h96c4.5 0 8.8-2 11.9-5.3l144-160c5.5-6.1 5.5-15.3 0-21.4z"/></svg>