<svg xmlns="http://www.w3.org/2000/svg" viewBox="0 0 64 64"><title>Instagram Logo</title><path d="M32 6.6c8.3 0 9.3 0 12.5.2 3 .1 4.7.6 5.8 1.1 1.4.6 2.5 1.2 3.6 2.3 1.1 1.1 1.8 2.1 2.3 3.6.4 1.1.9 2.7 1.1 5.8.1 3.3.2 4.2.2 12.5s0 9.3-.2 12.5c-.1 3-.6 4.7-1.1 5.8-.6 1.4-1.2 2.5-2.3 3.6-1.1 1.1-2.1 1.8-3.6 2.3-1.1.4-2.7.9-5.8 1.1-3.3.1-4.2.2-12.5.2s-9.3 0-12.5-.2c-3-.1-4.7-.6-5.8-1.1-1.4-.6-2.5-1.2-3.6-2.3-1.1-1.1-1.8-2.1-2.3-3.6-.4-1.1-.9-2.7-1.1-5.8-.1-3.3-.1-4.3-.1-12.6s0-9.3.2-12.5c.1-3 .6-4.7 1.1-5.8.6-1.4 1.2-2.5 2.3-3.6 1.1-1.1 2.1-1.8 3.6-2.3 1.1-.4 2.7-.9 5.8-1.1 3.1-.1 4.1-.1 12.4-.1M32 1c-8.4 0-9.5 0-12.8.2-3.3.2-5.6.7-7.5 1.4-2 .8-3.8 1.9-5.5 3.6-1.7 1.7-2.8 3.5-3.6 5.5-.8 2-1.3 4.2-1.4 7.5C1 22.5 1 23.6 1 32s0 9.5.2 12.8c.2 3.3.7 5.6 1.4 7.5.8 2 1.9 3.8 3.6 5.5 1.7 1.7 3.5 2.8 5.5 3.6 2 .8 4.2 1.3 7.5 1.4 3.3.2 4.4.2 12.8.2s9.5 0 12.8-.2c3.3-.2 5.6-.7 7.5-1.4 2-.8 3.8-1.9 5.5-3.6 1.7-1.7 2.8-3.5 3.6-5.5.8-2 1.3-4.2 1.4-7.5.2-3.3.2-4.4.2-12.8s0-9.5-.2-12.8c-.2-3.3-.7-5.6-1.4-7.5-.8-2-1.9-3.8-3.6-5.5-1.7-1.7-3.5-2.8-5.5-3.6-2-.8-4.2-1.3-7.5-1.4C41.5 1 40.4 1 32 1z"/><path d="M32 16.1c-8.8 0-15.9 7.1-15.9 15.9S23.2 47.9 32 47.9 47.9 40.8 47.9 32 40.8 16.1 32 16.1zm0 26.2c-5.7 0-10.3-4.6-10.3-10.3 0-5.7 4.6-10.3 10.3-10.3 5.7 0 10.3 4.6 10.3 10.3 0 5.7-4.6 10.3-10.3 10.3z"/><circle cx="48.5" cy="15.5" r="3.7"/></svg>