<svg xmlns="http://www.w3.org/2000/svg" height="512pt" viewBox="0 0 512 512" width="512pt"><path d="M77.11 401.664H55.163C24.746 401.664 0 426.414 0 456.832V497c0 8.285 6.715 15 15 15h64.691a44.719 44.719 0 0 1-2.582-15zm0 0M184.219 321.332h-21.942c-30.418 0-55.168 24.75-55.168 55.168V497c0 8.285 6.715 15 15 15h64.692a44.817 44.817 0 0 1-2.582-15zm0 0M509.055 150.672L401.94 6.07a15.006 15.006 0 0 0-24.11 0L270.724 150.672a15.005 15.005 0 0 0-1.344 15.676 15.007 15.007 0 0 0 13.398 8.254h38.555V497c0 8.285 6.715 15 15 15h107.11c8.285 0 15-6.715 15-15V174.602H497a15 15 0 0 0 13.395-8.254 14.996 14.996 0 0 0-1.34-15.676zm0 0"/><path d="M291.332 241h-21.945c-30.418 0-55.168 24.746-55.168 55.164V497c0 8.285 6.719 15 15 15h64.691a44.814 44.814 0 0 1-2.578-15zm0 0"/></svg>