<svg height="512" viewBox="0 0 507.246 507.246" width="512" xmlns="http://www.w3.org/2000/svg"><path d="M331.898 289.906c0 22.786 18.537 41.323 41.322 41.323h134.025v-82.646H373.221c-22.785.001-41.323 18.538-41.323 41.323zm63.92 1.214c0 9.2-7.458 16.658-16.658 16.658s-16.658-7.458-16.658-16.658 7.458-16.658 16.658-16.658c9.2.001 16.658 7.459 16.658 16.658z"/><path d="M373.221 363.229c-40.43 0-73.322-32.893-73.322-73.323s32.893-73.323 73.322-73.323h134.025v-55.838c0-37.771-30.729-68.5-68.5-68.5H68.5c-37.771 0-68.5 30.729-68.5 68.5v256.333c0 37.771 30.729 68.5 68.5 68.5h370.247c37.771 0 68.5-30.729 68.5-68.5v-53.849zM68.5 60.246c402.455 0 373.612-.332 382.448.742-10.978-23.216-34.618-39.32-61.956-39.32H68.5c-36.779 0-66.868 29.139-68.424 65.541C18.03 70.491 42.089 60.246 68.5 60.246z"/></svg>