<svg height="512" viewBox="0 -16 384 384" width="512" xmlns="http://www.w3.org/2000/svg"><path d="M336 64V48c0-26.473-21.527-48-48-48H48C21.527 0 0 21.527 0 48v256c0 26.473 21.527 48 48 48h288c26.473 0 48-21.527 48-48V112c0-26.473-21.527-48-48-48zM48 32h240c8.824 0 16 7.176 16 16v16H48c-8.824 0-16-7.176-16-16s7.176-16 16-16zm288 288H48c-8.824 0-16-7.176-16-16V93.258A47.83 47.83 0 0 0 48 96h288c8.824 0 16 7.176 16 16v40h-88c-30.879 0-56 25.129-56 56s25.121 56 56 56h88v40c0 8.824-7.176 16-16 16zm16-88h-37.441c3.52-7.434 5.441-15.566 5.441-24 0-8.594-2.008-16.71-5.48-24H352zm-112-24c0-13.23 10.77-24 24-24s24 10.77 24 24c0 6.406-2.504 12.473-6.938 16.945C276.473 229.496 270.406 232 264 232c-13.23 0-24-10.77-24-24zm0 0"/></svg>