<?xml version="1.0" encoding="utf-8"?>
<!-- Generator: Adobe Illustrator 19.0.0, SVG Export Plug-In . SVG Version: 6.00 Build 0)  -->
<svg version="1.1" id="Слой_1" xmlns="http://www.w3.org/2000/svg" xmlns:xlink="http://www.w3.org/1999/xlink" x="0px" y="0px"
	 viewBox="0 0 26.7 18.3" style="enable-background:new 0 0 26.7 18.3;" xml:space="preserve">
<g>
	<defs>
		<path id="SVGID_1_" d="M13.4,1.3C8.9,2.5,4.4,3.7,0,1.3v15.6c1.8,1,3.7,1.3,5.5,1.3h0.3c2.5,0,5-0.7,7.6-1.3
			c4.4-1.2,8.9-2.3,13.3,0V1.3c-1.9-1-3.8-1.3-5.6-1.3C18.5,0,15.9,0.7,13.4,1.3"/>
	</defs>
	<clipPath id="SVGID_2_">
		<use xlink:href="#SVGID_1_"  style="overflow:visible;"/>
	</clipPath>
	<path style="clip-path:url(#SVGID_2_);fill:#FFFFFF;" d="M0,16.9c8.9,4.7,17.8-4.7,26.7,0V1.3C17.8-3.3,8.9,6,0,1.3V16.9z"/>
	<path style="clip-path:url(#SVGID_2_);fill:#BD1F38;" d="M17.9,5.9c2.9-2.2,5.9-3.8,8.8-3.9V1.3c-0.2-0.1-0.4-0.2-0.6-0.3
		C22.7,1.4,19.4,3.7,16,6.3C16.6,6.2,17.3,6,17.9,5.9"/>
	<path style="clip-path:url(#SVGID_2_);fill:#BD1F38;" d="M17.5,10.6c3.1,1.1,6.2,2.8,9.2,6.1v-1c-2.5-2.7-4.9-4.3-7.4-5.4
		C18.7,10.4,18.1,10.5,17.5,10.6"/>
	<path style="clip-path:url(#SVGID_2_);fill:#BD1F38;" d="M0,2.5C2.6,5.4,5.3,7,7.9,8.2C8.5,8.1,9.1,8,9.8,7.9C6.5,6.7,3.2,5,0,1.5
		V2.5z"/>
	<path style="clip-path:url(#SVGID_2_);fill:#BD1F38;" d="M9.3,12.6c-3.1,2.3-6.2,4.2-9.3,4.3v0.1c0.6,0.3,1.1,0.5,1.7,0.7
		c3.2-0.7,6.3-3,9.5-5.5C10.6,12.3,9.9,12.4,9.3,12.6"/>
	<path style="clip-path:url(#SVGID_2_);fill:#2C3077;" d="M24.9,0.6c-3.1-1-6.2-0.5-9.3,0.2V6C18.6,3.5,21.8,1.3,24.9,0.6"/>
	<path style="clip-path:url(#SVGID_2_);fill:#2C3077;" d="M11.4,1.9C8.3,2.6,5.2,3.1,2.1,2.2c3.1,2.7,6.2,3.9,9.3,4.9V1.9z"/>
	<path style="clip-path:url(#SVGID_2_);fill:#2C3077;" d="M26.7,7V3.4c-2.1,0.1-4.2,1-6.3,2.2C22.5,5.6,24.6,5.9,26.7,7"/>
	<path style="clip-path:url(#SVGID_2_);fill:#2C3077;" d="M26.7,15.1v-3.5c-2.1-1.1-4.2-1.4-6.3-1.3C22.5,11.4,24.6,12.9,26.7,15.1"
		/>
	<path style="clip-path:url(#SVGID_2_);fill:#2C3077;" d="M2.6,17.9c2.9,0.7,5.9,0.2,8.8-0.5v-4.9C8.5,14.9,5.5,17,2.6,17.9"/>
	<path style="clip-path:url(#SVGID_2_);fill:#2C3077;" d="M15.5,16.4c2.9-0.7,5.9-1.2,8.8-0.4c-2.9-2.4-5.9-3.6-8.8-4.5V16.4z"/>
	<path style="clip-path:url(#SVGID_2_);fill:#2C3077;" d="M0,11.6v3.7c2.2-0.1,4.4-1,6.6-2.4C4.4,13.1,2.2,12.8,0,11.6"/>
	<path style="clip-path:url(#SVGID_2_);fill:#2C3077;" d="M0,7c2.2,1.1,4.4,1.5,6.6,1.3C4.4,7.2,2.2,5.7,0,3.3V7z"/>
	<path style="clip-path:url(#SVGID_2_);fill:#BD1F38;" d="M12.2,1.6v6.6C8.1,9.2,4.1,10,0,7.9v2.8C4.1,12.8,8.1,12,12.2,11v6.2
		c0.8-0.2,1.6-0.4,2.5-0.6v-6.2c4-1,8-1.7,12,0.4V7.9c-4-2.1-8-1.4-12-0.4V1C13.9,1.2,13,1.4,12.2,1.6"/>
</g>
</svg>
