<svg xmlns="http://www.w3.org/2000/svg" width="923.97" height="240.245" viewBox="0 0 923.97 240.245">
  <defs>
    <style>
      .cls-1 {
        fill: none;
        stroke: #fff;
        stroke-width: 1px;
        fill-rule: evenodd;
        opacity: 0.1;
      }
    </style>
  </defs>
  <path id="icon-amounts.svg" class="cls-1" d="M1109.16,1038.56q0-30.825-21.15-48.757t-56.39-17.927H938.988V1206.44H1038q35.91,0,57.39-18.76t21.48-49.93q0-35.19-29.53-52.61,21.81-17.1,21.82-46.58h0Zm-65.45-8.04q5.355,5.025,5.37,13.4,0,8.715-5.54,13.57a19.866,19.866,0,0,1-13.59,4.86H999.066v-36.86h30.884Q1038.335,1025.49,1043.71,1030.52Zm-44.644,122.31v-39.55h37.254q9.06,0,14.77,5.37,5.7,5.355,5.71,14.41a18.976,18.976,0,0,1-5.71,14.24q-5.715,5.52-14.77,5.53H999.066Zm288.144,32.67q25.995-25.635,26.01-62.83,0-37.2-26.01-62.83-26.025-25.635-63.61-25.64-37.26,0-63.43,25.64-26.19,25.635-26.18,62.83t26.18,62.83q26.175,25.635,63.43,25.63Q1261.19,1211.13,1287.21,1185.5Zm-87.61-37.7q-9.555-9.72-9.56-25.13t9.56-25.13q9.57-9.72,24-9.72,14.775,0,24.34,9.72t9.56,25.13q0,15.42-9.56,25.13t-24.34,9.72Q1209.17,1157.52,1199.6,1147.8Zm193.83-92.15v-16.76h-55.71v167.55h55.71v-89.13q0-14.745,7.22-22.62t20.3-7.88q11.415,0,18.3,6.7,6.87,6.72,6.88,19.77v93.16h55.71V1106.25q0-34.845-17.28-53.45-17.3-18.6-44.48-18.6-31.545,0-46.65,21.45h0Zm245.01,72.38q0,14.745-7.21,22.62-7.23,7.875-20.31,7.87-11.415,0-18.29-6.7t-6.88-19.77v-93.16h-55.72v100.2q0,34.845,17.29,53.44t44.47,18.6q31.545,0,46.65-21.44v16.75h55.72V1038.89h-55.72v89.14Zm152.72-48.25q13.425,0,20.81,14.4l46.99-21.11q-19.47-38.865-69.14-38.87-27.87,0-47.66,14.75-19.815,14.745-19.81,41.55,0,16.425,8.4,27.64a48.634,48.634,0,0,0,20.47,16.26,169.889,169.889,0,0,0,24.17,8.04q12.075,3.015,20.47,6.03t8.39,7.71q0,9.045-15.1,9.04-19.815,0-26.18-18.43l-48.67,24.47q18.795,39.87,75.18,39.87,29.535,0,51.02-13.74t21.48-42.55q0-17.76-8.56-29.49a47.088,47.088,0,0,0-20.81-16.59,159.381,159.381,0,0,0-24.5-7.54,177.2,177.2,0,0,1-20.81-5.69c-5.71-2.02-8.56-4.58-8.56-7.71q0-8.04,12.42-8.04h0Z" transform="translate(-938.5 -971.375)"/>
</svg>
