<svg xmlns="http://www.w3.org/2000/svg" xmlns:xlink="http://www.w3.org/1999/xlink" version="1.1" id="Layer_1" x="0px" y="0px" viewBox="0 0 512.001 512.001" style="enable-background:new 0 0 512.001 512.001;" xml:space="preserve" width="512" height="512">
<g>
	<path d="M256.379,252.046c14.489,0,24.586,7.144,24.586,13.556c0,4.142,3.358,7.5,7.5,7.5s7.5-3.358,7.5-7.5   c0-14.157-13.596-25.596-32.086-28.058v-1.02c0-4.142-3.358-7.5-7.5-7.5s-7.5,3.358-7.5,7.5v1.02   c-18.491,2.462-32.086,13.901-32.086,28.058c0,22.56,22.476,29.583,37.349,34.231c20.557,6.424,26.824,11.077,26.824,19.914   c0,6.412-10.097,13.556-24.586,13.556c-14.489,0-24.586-7.144-24.586-13.556c0-4.142-3.358-7.5-7.5-7.5s-7.5,3.358-7.5,7.5   c0,14.157,13.595,25.596,32.086,28.058v1.02c0,4.142,3.358,7.5,7.5,7.5s7.5-3.358,7.5-7.5v-1.02   c18.491-2.463,32.086-13.901,32.086-28.058c0-22.559-22.476-29.583-37.349-34.231c-20.556-6.424-26.823-11.076-26.823-19.914   C231.793,259.19,241.89,252.046,256.379,252.046z"/>
	<path d="M508.848,117.601c-2.469-1.756-5.752-1.854-8.322-0.248c-16.061,10.038-61.527,35.914-136.651,59.333   c-11.343,3.536-20.9,11.097-26.911,21.289l-10.588,17.953c-1.236-1.141-2.495-2.261-3.79-3.344   c-3.179-2.657-7.909-2.234-10.565,0.944s-2.234,7.908,0.944,10.564c33.341,27.872,41.605,75.315,19.652,112.809   c-24.729,42.235-79.209,56.475-121.442,31.746c-42.234-24.729-56.475-79.208-31.746-121.442   c21.954-37.494,67.373-53.503,107.995-38.068c3.874,1.473,8.204-0.475,9.675-4.347c1.472-3.872-0.475-8.204-4.347-9.675   c-22.669-8.614-47.823-8.972-70.824-1.009c-13.573,4.699-25.91,12.168-36.322,21.786l-10.566-17.917   c-6.01-10.192-15.568-17.752-26.911-21.288c-75.124-23.419-120.59-49.295-136.651-59.333c-2.57-1.606-5.854-1.508-8.322,0.248   c-2.469,1.756-3.639,4.826-2.965,7.78c0.428,1.874,9.786,41.532,43,83.753l-26.386-4.574c-2.718-0.471-5.479,0.589-7.183,2.761   c-1.704,2.172-2.076,5.104-0.97,7.633c0.702,1.606,16.225,36.285,58.239,67.54l-8.925,1.623c-2.617,0.476-4.787,2.303-5.701,4.801   c-0.915,2.498-0.437,5.294,1.254,7.347c0.468,0.568,11.675,14.006,30.654,22.708c8.674,3.978,19.807,7.311,32.762,7.31   c11.487,0,24.412-2.64,38.314-9.758c6.417,26.406,23.101,50.283,48.347,65.065c16.438,9.625,34.454,14.2,52.253,14.198   c35.662-0.003,70.429-18.376,89.712-51.309c5.136-8.771,8.89-18.191,11.251-27.925c13.881,7.096,26.783,9.729,38.256,9.728   c12.953,0,24.088-3.333,32.762-7.31c18.979-8.702,30.187-22.14,30.654-22.708c1.691-2.053,2.169-4.849,1.254-7.347   c-0.915-2.498-3.084-4.325-5.701-4.801l-8.925-1.623c42.014-31.255,57.536-65.934,58.239-67.54c1.106-2.529,0.733-5.461-0.97-7.633   s-4.462-3.231-7.183-2.761l-26.386,4.574c33.214-42.22,42.573-81.879,43-83.753C512.487,122.427,511.317,119.357,508.848,117.601z    M20.83,140.237c44.385,24.569,94.783,42.025,122.832,50.769c7.784,2.427,14.338,7.608,18.455,14.588l12.825,21.748   c-1.069,1.338-2.112,2.699-3.116,4.093L66.234,213.129C41.474,186.013,27.744,157.923,20.83,140.237z M75.261,296.218l25.828-4.696   c4.075-0.741,6.778-4.645,6.037-8.72c-0.74-4.076-4.647-6.776-8.721-6.038l-10.635,1.934c-30.543-19.6-48.728-42.575-57.886-56.647   l133.563,23.155c-3.482,6.87-6.13,13.971-7.967,21.181l-26.253,4.773c-4.075,0.741-6.778,4.645-6.037,8.72   c0.658,3.622,3.815,6.16,7.37,6.16c0.445,0,0.897-0.04,1.351-0.122l20.842-3.789c-0.591,6.25-0.613,12.512-0.077,18.71   C117.432,321.293,89.455,307.219,75.261,296.218z M359.38,300.871c0.526-6.216,0.484-12.488-0.125-18.741l77.484,14.088   C422.544,307.217,394.59,321.276,359.38,300.871z M474.754,232.546c-9.421,12.338-25.812,30.287-50.532,46.15l-67.752-12.318   c-1.892-7.353-4.575-14.446-7.982-21.161l133.674-23.174C480.144,225.159,477.685,228.707,474.754,232.546z M445.766,213.129   l-105.662,18.318c-0.991-1.376-2.019-2.724-3.078-4.051l12.857-21.802c4.117-6.98,10.671-12.161,18.455-14.588   c28.049-8.744,78.447-26.2,122.832-50.769C484.256,157.926,470.527,186.013,445.766,213.129z"/>
	<path d="M256.167,171.223c4.142,0,7.5-3.358,7.5-7.5v-24.065c0-4.142-3.358-7.5-7.5-7.5s-7.5,3.358-7.5,7.5v24.065   C248.667,167.865,252.025,171.223,256.167,171.223z"/>
	<path d="M204.027,174.386c1.129,3.011,3.987,4.869,7.023,4.869c0.875,0,1.765-0.154,2.632-0.479   c3.878-1.454,5.844-5.777,4.389-9.656l-3.011-8.03c-1.454-3.879-5.779-5.843-9.656-4.389c-3.878,1.454-5.844,5.777-4.389,9.656   L204.027,174.386z"/>
	<path d="M298.652,178.776c0.868,0.325,1.757,0.479,2.632,0.479c3.037,0,5.895-1.858,7.023-4.869l3.011-8.03   c1.455-3.878-0.511-8.201-4.389-9.656c-3.879-1.455-8.202,0.511-9.656,4.389l-3.011,8.03   C292.809,172.998,294.774,177.321,298.652,178.776z"/>
</g>
</svg>