<svg xmlns="http://www.w3.org/2000/svg" xmlns:xlink="http://www.w3.org/1999/xlink" version="1.1" id="Layer_1" x="0px" y="0px" viewBox="0 0 512.001 512.001" style="enable-background:new 0 0 512.001 512.001;" xml:space="preserve" width="512" height="512">
<g>
	<path d="M222.62,42.77L76.684,85.138c-24.443,7.097-38.945,32.044-33.015,56.796c0.935,3.9,1.918,7.848,2.923,11.733   c1.037,4.01,5.127,6.421,9.139,5.383c4.01-1.037,6.42-5.129,5.383-9.139c-0.983-3.799-1.944-7.659-2.858-11.472   c-4.062-16.951,5.87-34.036,22.61-38.896l145.935-42.368c7.119-2.066,14.39-3.36,21.699-3.887v75.306   c-0.217,0.015-0.435,0.019-0.652,0.036c-24.551,1.908-47.675,12.563-65.112,30c-19.585,19.585-30.371,45.625-30.371,73.322   s10.786,53.737,30.371,73.322c17.792,17.793,40.913,28.321,65.764,30.1v109.224c-6.833-1.259-13.392-4.249-18.919-8.983   c-90.484-77.506-136.639-180.9-159.425-253.988c-1.233-3.955-5.438-6.16-9.393-4.928s-6.161,5.438-4.928,9.392   c23.372,74.968,70.795,181.089,163.988,260.916c10.313,8.834,23.243,13.25,36.177,13.25c12.931,0,25.866-4.417,36.177-13.249   c49.207-42.149,90.541-95.735,122.854-159.27c28.695-56.422,44.822-110.43,53.297-145.802c5.931-24.753-8.571-49.701-33.014-56.797   L289.381,42.77C267.544,36.43,244.457,36.43,222.62,42.77z M431.132,99.543c16.74,4.859,26.671,21.945,22.609,38.896   c-8.287,34.585-24.05,87.382-52.081,142.497c-31.417,61.774-71.536,113.815-119.241,154.678   c-5.527,4.734-12.087,7.724-18.919,8.983V335.381c24.894-1.754,48.061-12.287,65.881-30.107c17.437-17.437,28.091-40.561,30-65.112   c1.885-24.253-4.818-48.482-18.876-68.224c-2.403-3.374-7.085-4.161-10.46-1.759c-3.374,2.403-4.162,7.086-1.759,10.46   c25.189,35.372,21.189,83.328-9.511,114.028c-16.752,16.752-39.025,25.978-62.716,25.978c-23.691,0-45.964-9.226-62.716-25.978   c-34.582-34.582-34.582-90.85,0-125.432c17.077-17.077,39.493-25.879,62.112-26.005c0.181,0.013,0.361,0.027,0.545,0.027   c0.211,0,0.419-0.014,0.625-0.031c17.659,0.136,35.388,5.562,50.745,16.499c3.375,2.403,8.057,1.616,10.46-1.758   c2.403-3.374,1.615-8.058-1.759-10.46c-15.481-11.024-33.723-17.504-52.572-18.887V53.288c7.309,0.526,14.58,1.82,21.698,3.887   L431.132,99.543z"/>
	<path d="M506.592,72.443l-248.5-72.145c-1.366-0.396-2.816-0.396-4.183,0L5.409,72.443c-3.434,0.997-5.687,4.28-5.381,7.843   c0.249,2.908,6.495,72.22,40.557,160.381c20.014,51.801,45.526,99.234,75.827,140.982c37.949,52.286,83.549,95.741,135.533,129.159   C253.18,511.603,254.59,512,256,512c1.41,0,2.82-0.397,4.056-1.191c51.983-33.418,97.583-76.873,135.533-129.159   c30.301-41.748,55.813-89.182,75.827-140.982c34.062-88.161,40.308-157.474,40.557-160.381   C512.278,76.723,510.026,73.44,506.592,72.443z M457.424,235.261c-19.547,50.592-44.436,96.879-73.975,137.578   C347.591,422.244,304.729,463.51,256,495.554c-48.651-31.995-91.459-73.184-127.282-122.485   c-29.526-40.635-54.414-86.854-73.973-137.371c-27.712-71.577-36.78-131.802-39.097-150.609L256,15.31l240.354,69.78   C494.053,103.84,485.045,163.77,457.424,235.261z"/>
	<path d="M256,191.355c14.476,0,24.564,7.137,24.564,13.543c0,4.142,3.358,7.5,7.5,7.5s7.5-3.358,7.5-7.5   c0-14.149-13.586-25.582-32.064-28.044v-1.014c0-4.143-3.358-7.5-7.5-7.5c-4.142,0-7.5,3.357-7.5,7.5v1.014   c-18.478,2.462-32.064,13.895-32.064,28.044c0,22.548,22.463,29.567,37.328,34.213c20.539,6.418,26.801,11.067,26.801,19.896   c0,6.405-10.088,13.542-24.564,13.542c-14.476,0-24.564-7.137-24.564-13.542c0-4.142-3.358-7.5-7.5-7.5s-7.5,3.358-7.5,7.5   c0,14.149,13.586,25.582,32.064,28.044v1.015c0,4.142,3.358,7.5,7.5,7.5c4.142,0,7.5-3.358,7.5-7.5v-1.015   c18.478-2.462,32.064-13.895,32.064-28.044c0-22.548-22.463-29.568-37.327-34.213c-20.54-6.419-26.802-11.067-26.802-19.896   C231.436,198.492,241.524,191.355,256,191.355z"/>
</g>
</svg>