<svg xmlns="http://www.w3.org/2000/svg" width="365.969" height="238" viewBox="0 0 365.969 238">
  <defs>
    <style>
      .cls-1 {
        fill: none;
        stroke: #fff;
        stroke-width: 1px;
        fill-rule: evenodd;
        opacity: 0.3;
      }
    </style>
  </defs>
  <path id="icon-kvant-title.svg" class="cls-1" d="M850.589,352.082H777.023V383.8h30.841V550.287h42.725V352.082ZM1061.94,330h-29.99v27.749H1002.8V330H972.813v27.749H944.235q-26.878,0-39.895,12.034t-13.015,33.27v21.236q0,21.235,13.015,33.27t39.895,12.034h28.578v35.394H891.325v29.164l6.79,7.645h74.7v25.2H1002.8v-25.2h29.15v25.2h29.99v-25.2h27.16q26.88,0,39.9-12.034t13.01-33.27v-18.4q0-21.237-13.01-33.271t-39.9-12.034h-27.16V394.554h74.13V365.39l-6.79-7.645h-67.34V330ZM934.332,403.049q0-8.494,9.9-8.5h28.578v38.225H944.235q-9.9,0-9.9-8.494V403.049Zm164.678,93.439q0,8.495-9.91,8.5h-27.16V469.589h27.16q9.915,0,9.91,8.5v18.4Zm-96.21-63.709V394.554h29.15v38.225H1002.8Zm0,36.81h29.15v35.394H1002.8V469.589Z" transform="translate(-776.531 -329.5)"/>
</svg>
