<svg xmlns="http://www.w3.org/2000/svg" xmlns:xlink="http://www.w3.org/1999/xlink" version="1.1" id="Layer_1" x="0px" y="0px" viewBox="0 0 512 512" style="enable-background:new 0 0 512 512;" xml:space="preserve" width="512" height="512">
<g>
	<path d="M448.387,208.419h-72.662V55.597c0-8.556-6.96-15.516-15.516-15.516h-16.032c-8.556,0-15.516,6.96-15.516,15.516v152.823   h-17.064v-40.597c0-8.556-6.96-15.516-15.516-15.516h-16.032c-8.556,0-15.516,6.96-15.516,15.516v40.597H63.613   c-17.396,0-31.548,14.152-31.548,31.548v240.484c0,17.396,14.152,31.548,31.548,31.548h384.774   c17.396,0,31.548-14.152,31.548-31.548V239.968C479.936,222.572,465.783,208.419,448.387,208.419z M343.661,55.597   c0-0.285,0.231-0.516,0.516-0.516h16.032c0.285,0,0.516,0.231,0.516,0.516v152.823h-17.064V55.597z M360.726,223.419v209.452   h-17.064V247.988c0-4.142-3.358-7.5-7.5-7.5s-7.5,3.358-7.5,7.5v184.883h-17.064V223.419H360.726z M279.532,167.823   c0-0.285,0.231-0.516,0.516-0.516h16.032c0.285,0,0.516,0.231,0.516,0.516v40.597h-17.064V167.823z M47.064,480.452V239.968   c0-9.125,7.423-16.548,16.548-16.548h32.581v232.984c0,4.142,3.358,7.5,7.5,7.5s7.5-3.358,7.5-7.5V223.419h185.403v209.452h-17.064   V247.983c0-4.142-3.358-7.5-7.5-7.5s-7.5,3.358-7.5,7.5v184.888h-17.064V296.081c0-8.556-6.96-15.516-15.516-15.516h-16.032   c-8.556,0-15.516,6.96-15.516,15.516v136.791h-17.064v-80.678c0-8.556-6.96-15.516-15.516-15.516h-16.032   c-8.556,0-15.516,6.96-15.516,15.516v80.678h-0.516c-4.142,0-7.5,3.358-7.5,7.5s3.358,7.5,7.5,7.5h240.483   c4.142,0,7.5-3.358,7.5-7.5s-3.358-7.5-7.5-7.5h-0.516V223.419h25.081V497H111.193v-8.53c0-4.142-3.358-7.5-7.5-7.5   s-7.5,3.358-7.5,7.5V497H63.613C54.488,497,47.064,489.577,47.064,480.452z M215.403,432.871V296.081   c0-0.285,0.231-0.516,0.516-0.516h16.032c0.285,0,0.516,0.231,0.516,0.516v136.791H215.403z M151.274,432.871v-80.678   c0-0.285,0.231-0.516,0.516-0.516h16.032c0.285,0,0.516,0.231,0.516,0.516v80.678H151.274z M464.936,480.452   c0,9.125-7.423,16.548-16.548,16.548h-32.581V223.419h32.581c9.125,0,16.548,7.423,16.548,16.548V480.452z"/>
	<path d="M440.371,336.677c-4.142,0-7.5,3.358-7.5,7.5v32.064c0,4.142,3.358,7.5,7.5,7.5s7.5-3.358,7.5-7.5v-32.064   C447.871,340.035,444.513,336.677,440.371,336.677z"/>
	<path d="M71.629,352.75c-4.142,0-7.5,3.398-7.5,7.54s3.358,7.5,7.5,7.5s7.5-3.358,7.5-7.5v-0.081   C79.129,356.067,75.771,352.75,71.629,352.75z"/>
	<path d="M344.177,479.936h16.032c4.142,0,7.5-3.358,7.5-7.5s-3.358-7.5-7.5-7.5h-16.032c-4.142,0-7.5,3.358-7.5,7.5   S340.035,479.936,344.177,479.936z"/>
	<path d="M280.048,479.936h16.032c4.142,0,7.5-3.358,7.5-7.5s-3.358-7.5-7.5-7.5h-16.032c-4.142,0-7.5,3.358-7.5,7.5   S275.906,479.936,280.048,479.936z"/>
	<path d="M215.919,479.936h16.032c4.142,0,7.5-3.358,7.5-7.5s-3.358-7.5-7.5-7.5h-16.032c-4.142,0-7.5,3.358-7.5,7.5   S211.777,479.936,215.919,479.936z"/>
	<path d="M151.791,479.936h16.032c4.142,0,7.5-3.358,7.5-7.5s-3.358-7.5-7.5-7.5h-16.032c-4.142,0-7.5,3.358-7.5,7.5   S147.648,479.936,151.791,479.936z"/>
	<path d="M159.807,319.613c4.142,0,7.5-3.358,7.5-7.5v-8.016c0-4.142-3.358-7.5-7.5-7.5s-7.5,3.358-7.5,7.5v8.016   C152.307,316.255,155.665,319.613,159.807,319.613z"/>
	<path d="M223.936,263.5c4.142,0,7.5-3.358,7.5-7.5v-8.016c0-4.142-3.358-7.5-7.5-7.5s-7.5,3.358-7.5,7.5V256   C216.436,260.142,219.793,263.5,223.936,263.5z"/>
	<path d="M288.064,135.242c4.142,0,7.5-3.358,7.5-7.5v-8.016c0-4.142-3.358-7.5-7.5-7.5s-7.5,3.358-7.5,7.5v8.016   C280.564,131.884,283.922,135.242,288.064,135.242z"/>
	<path d="M352.193,23.016c4.142,0,7.5-3.358,7.5-7.5V7.5c0-4.142-3.358-7.5-7.5-7.5s-7.5,3.358-7.5,7.5v8.016   C344.693,19.658,348.051,23.016,352.193,23.016z"/>
</g>
</svg>