<svg xmlns="http://www.w3.org/2000/svg" width="823" height="221" viewBox="0 0 823 221">
  <defs>
    <style>
      .cls-1 {
        fill: none;
        stroke: #fff;
        stroke-width: 1px;
        fill-rule: evenodd;
        opacity: 0.2;
      }
    </style>
  </defs>
  <path id="icon-partners.svg" class="cls-1" d="M1165.46,3571.99q21.3-16.995,21.3-46.57a56.4,56.4,0,0,0-4.29-22.62,58.056,58.056,0,0,0-9.76-15.97q-5.475-6.06-15.97-11.53a136.35,136.35,0,0,0-17.31-7.84q-6.81-2.37-19.22-6.21-22.785-6.8-30.03-12.42-7.245-5.61-7.24-13.31,0-6.495,5.76-11.09,5.775-4.575,16.42-4.58,13.605,0,21.89,6.06t13.9,17.89l39.93-23.36q-11.235-22.77-30.76-34.75t-44.96-11.97q-28.395,0-48.95,17.15t-20.56,45.83a61.185,61.185,0,0,0,4.88,25.14,46.789,46.789,0,0,0,14.2,18.19,95.518,95.518,0,0,0,19.08,11.68,151.6,151.6,0,0,0,22.77,7.98q24.855,6.81,33.87,11.98t9.02,14.34q0,16.86-28.1,16.86-31.05,0-43.48-28.69l-40.82,23.66a74.936,74.936,0,0,0,30.02,37.41q21.15,13.74,52.8,13.75Q1144.17,3589,1165.46,3571.99Zm197.3-61.06q0-32.82-22.78-55.45t-55.61-22.62q-32.835,0-55.61,22.62t-22.78,55.45q0,32.82,22.78,55.45t55.61,22.62q32.835,0,55.61-22.62Q1362.75,3543.745,1362.76,3510.93Zm-112.41,0q0-15.375,9.77-25.14,9.75-9.75,24.25-9.76t24.26,9.76q9.75,9.765,9.76,25.14t-9.76,25.14q-9.765,9.75-24.26,9.75t-24.25-9.75Q1250.355,3526.305,1250.35,3510.93Zm247.88,67.72a72.988,72.988,0,0,0,27.51-27.8l-38.75-22.18q-7.7,16.575-28.69,16.56-14.5,0-23.96-9.61t-9.47-24.69q0-15.09,9.47-24.69t23.96-9.61q20.7,0,28.69,16.56l38.75-22.48a73.4,73.4,0,0,0-27.66-27.5,76.885,76.885,0,0,0-39.19-10.35q-33.72,0-56.05,22.47-22.335,22.485-22.34,55.6t22.34,55.59q22.32,22.485,56.05,22.48A76.67,76.67,0,0,0,1498.23,3578.65Zm94.06-181.28a26.751,26.751,0,1,0-7.83,18.78A25.609,25.609,0,0,0,1592.29,3397.37Zm-4.43,187.49V3437h-44.37v147.86h44.37Zm139.91-133.96q-15.69-18.03-44.08-18.04-29.28,0-49.99,22.62t-20.7,55.45q0,32.82,20.7,55.45t49.99,22.62q28.41,0,44.08-18.04v13.9h44.37V3437h-44.37v13.9Zm-70.4,60.03q0-16.56,9.76-26.32t25.44-9.76q15.675,0,25.44,9.76,9.75,9.765,9.76,26.32t-9.76,26.32q-9.765,9.75-25.44,9.76-15.69,0-25.44-9.76Q1657.365,3527.485,1657.37,3510.93Zm191.67,73.93V3368.98h-44.37v215.88h44.37Z" transform="translate(-1026.53 -3368.5)"/>
</svg>
