<?xml version="1.0" encoding="utf-8"?>
<!-- Generator: Adobe Illustrator 19.0.0, SVG Export Plug-In . SVG Version: 6.00 Build 0)  -->
<svg version="1.1" id="Слой_1" xmlns="http://www.w3.org/2000/svg" xmlns:xlink="http://www.w3.org/1999/xlink" x="0px" y="0px"
	 viewBox="0 0 26.7 18.3" style="enable-background:new 0 0 26.7 18.3;" xml:space="preserve">
<g>
	<defs>
		<path id="SVGID_1_" d="M13.4,1.3C8.9,2.5,4.4,3.7,0,1.3v15.6c1.8,1,3.7,1.3,5.5,1.3h0.3c2.5,0,5.1-0.7,7.6-1.3
			c4.4-1.2,8.9-2.3,13.4,0V1.3c-1.9-1-3.8-1.3-5.6-1.3C18.5,0,15.9,0.7,13.4,1.3"/>
	</defs>
	<clipPath id="SVGID_2_">
		<use xlink:href="#SVGID_1_"  style="overflow:visible;"/>
	</clipPath>
	<path style="clip-path:url(#SVGID_2_);fill:#4DA0D8;" d="M0,11.9c8.9,4.7,17.8-4.7,26.7,0V6.7C17.8,2.1,8.9,11.4,0,6.7V11.9z"/>
	<path style="clip-path:url(#SVGID_2_);fill:#FFFFFF;" d="M0,6.7c8.9,4.7,17.8-4.7,26.7,0V1.5C17.8-3.1,8.9,6.2,0,1.5V6.7z"/>
	<path style="clip-path:url(#SVGID_2_);fill:#DC1E39;" d="M0,16.5c8.9,4.7,17.8-4.7,26.7,0v-5.2C17.8,6.7,8.9,16,0,11.3V16.5z"/>
</g>
</svg>
