<svg xmlns="http://www.w3.org/2000/svg" xmlns:xlink="http://www.w3.org/1999/xlink" version="1.1" id="Layer_1" x="0px" y="0px" viewBox="0 0 512 512" style="enable-background:new 0 0 512 512;" xml:space="preserve" width="512" height="512">
<g>
	<path d="M31.548,359.693c8.993,0,17.112-3.788,22.864-9.845l59.04,33.737c-0.793,2.762-1.227,5.675-1.227,8.689   c0,17.396,14.153,31.548,31.549,31.548s31.548-14.152,31.548-31.548c0-8.892-3.703-16.93-9.642-22.671l81.359-139.472   c2.842,0.844,5.847,1.304,8.96,1.304c5.237,0,10.175-1.29,14.526-3.557l71.889,82.158c-3.61,5.13-5.738,11.373-5.738,18.108   c0,17.396,14.152,31.548,31.548,31.548s31.549-14.152,31.549-31.548c0-9.926-4.613-18.791-11.802-24.579l86.317-184.965   c1.994,0.396,4.054,0.608,6.162,0.608c17.396,0,31.548-14.152,31.548-31.548s-14.152-31.548-31.548-31.548   s-31.548,14.152-31.548,31.548c0,9.926,4.612,18.791,11.802,24.579l-86.317,184.965c-1.994-0.396-4.054-0.608-6.162-0.608   c-5.237,0-10.175,1.29-14.526,3.557l-71.889-82.159c3.609-5.129,5.738-11.373,5.738-18.108c0-17.396-14.152-31.548-31.548-31.548   s-31.548,14.152-31.548,31.548c0,8.892,3.703,16.93,9.641,22.67l-81.359,139.472c-2.842-0.844-5.848-1.304-8.96-1.304   c-8.993,0-17.112,3.788-22.865,9.845l-59.04-33.737c0.793-2.762,1.226-5.675,1.226-8.689c0-17.396-14.152-31.548-31.548-31.548   S0,310.749,0,328.145S14.152,359.693,31.548,359.693z M480.452,71.113c9.125,0,16.548,7.423,16.548,16.548   s-7.423,16.548-16.548,16.548s-16.548-7.423-16.548-16.548S471.327,71.113,480.452,71.113z M384.774,328.145   c0,9.125-7.424,16.548-16.549,16.548s-16.548-7.423-16.548-16.548s7.423-16.548,16.548-16.548S384.774,319.02,384.774,328.145z    M256,183.339c9.125,0,16.548,7.423,16.548,16.548s-7.423,16.548-16.548,16.548s-16.548-7.423-16.548-16.548   S246.875,183.339,256,183.339z M143.774,375.726c9.125,0,16.548,7.424,16.548,16.549s-7.423,16.548-16.548,16.548   s-16.549-7.423-16.549-16.548S134.649,375.726,143.774,375.726z M31.548,311.597c9.125,0,16.548,7.423,16.548,16.548   s-7.423,16.548-16.548,16.548S15,337.27,15,328.145S22.423,311.597,31.548,311.597z"/>
	<path d="M504.5,472.952h-16.548V159.807c0-4.142-3.358-7.5-7.5-7.5s-7.5,3.358-7.5,7.5v313.145h-97.226v-88.693   c0-4.142-3.358-7.5-7.5-7.5s-7.5,3.358-7.5,7.5v88.693H263.5V256c0-4.142-3.358-7.5-7.5-7.5s-7.5,3.358-7.5,7.5v216.952h-97.226   v-24.564c0-4.142-3.358-7.5-7.5-7.5s-7.5,3.358-7.5,7.5v24.564H87.661c-4.142,0-7.5,3.358-7.5,7.5s3.358,7.5,7.5,7.5H504.5   c4.142,0,7.5-3.358,7.5-7.5S508.642,472.952,504.5,472.952z"/>
	<path d="M55.6,472.952H39.048v-88.693c0-4.142-3.358-7.5-7.5-7.5s-7.5,3.358-7.5,7.5v88.693H7.5c-4.142,0-7.5,3.358-7.5,7.5   s3.358,7.5,7.5,7.5h48.1c4.142,0,7.5-3.358,7.5-7.5S59.742,472.952,55.6,472.952z"/>
	<path d="M256.04,151.274c4.142,0,7.5-3.358,7.5-7.5s-3.358-7.5-7.5-7.5h-0.08c-4.142,0-7.46,3.358-7.46,7.5   S251.898,151.274,256.04,151.274z"/>
	<path d="M31.548,279.532c4.142,0,7.5-3.358,7.5-7.5s-3.358-7.5-7.5-7.5h-0.08c-4.142,0-7.46,3.358-7.46,7.5   S27.406,279.532,31.548,279.532z"/>
	<path d="M480.532,39.048c4.142,0,7.5-3.358,7.5-7.5s-3.358-7.5-7.5-7.5h-0.08c-4.142,0-7.46,3.358-7.46,7.5   S476.39,39.048,480.532,39.048z"/>
	<path d="M143.854,343.661c4.142,0,7.5-3.358,7.5-7.5s-3.358-7.5-7.5-7.5h-0.08c-4.142,0-7.46,3.358-7.46,7.5   S139.712,343.661,143.854,343.661z"/>
	<path d="M368.266,279.532c4.142,0,7.5-3.358,7.5-7.5s-3.358-7.5-7.5-7.5h-0.081c-4.142,0-7.46,3.358-7.46,7.5   S364.124,279.532,368.266,279.532z"/>
</g>
</svg>