<svg xmlns="http://www.w3.org/2000/svg" width="575.94" height="164.97" viewBox="0 0 575.94 164.97">
  <defs>
    <style>
      .cls-1 {
        fill: none;
        stroke: #fff;
        stroke-width: 1px;
        fill-rule: evenodd;
        opacity: 0.2;
      }
    </style>
  </defs>
  <path id="icon-team.svg" class="cls-1" d="M1022.05,5372.07v35.37h41.35v125.37h36.75V5407.44h41.35v-35.37H1022.05Zm230.62,117.11a65.457,65.457,0,0,0,1.38-13.77q0-25.95-16.65-43.29-16.665-17.34-41.69-17.34-26.88,0-43.99,17.34t-17.11,43.29q0,26.175,17.34,43.4t46.28,17.22q33.075,0,50.08-23.65l-27.57-15.85q-8.04,8.73-22.05,8.73-21.585,0-27.56-16.08h81.54Zm-57.19-43.86q19.29,0,24.35,18.14h-49.39q5.055-18.135,25.04-18.14h0Zm164.92-16.53q-12.18-14.01-34.22-14.01-22.74,0-38.82,17.57t-16.08,43.06q0,25.485,16.08,43.05t38.82,17.57q22.05,0,34.22-14.01v10.79h34.46V5418H1360.4v10.79Zm-54.67,46.62q0-12.87,7.58-20.44t19.76-7.58q12.165,0,19.75,7.58t7.58,20.44q0,12.855-7.58,20.43t-19.75,7.58q-12.18,0-19.76-7.58T1305.73,5475.41Zm214.31-45.47q-10.11-15.15-30.09-15.16-21.36,0-30.78,13.78V5418h-34.45v114.81h34.45v-64.75q0-10.11,4.71-15.85t13.21-5.74q8.04,0,12.29,5.05t4.25,13.78v67.51h34.45v-64.75q0-10.11,4.71-15.85t13.21-5.74q8.04,0,12.29,5.05t4.25,13.78v67.51h34.45v-70.49q0-21.585-11.94-34.56-11.955-12.975-31.7-12.98-22.74,0-33.31,15.16h0Z" transform="translate(-1021.56 -5371.56)"/>
</svg>
