<svg xmlns="http://www.w3.org/2000/svg" width="725.848" height="93.53" viewBox="0 0 725.848 93.53">
  <defs>
    <style>
      .cls-1 {
        fill: none;
        stroke: #fff;
        stroke-width: 1px;
        fill-rule: evenodd;
      }
    </style>
  </defs>
  <path id="bg-advantages.svg" class="cls-1" d="M470.565,1720.68v71.92h18.391v-54.14h18.7v54.14h18.391v-71.92H470.565Zm83.119,25.28v-4.73H536.628v71.92h17.056v-25.27q5.24,6.165,14.589,6.16a22.133,22.133,0,0,0,17.21-7.76q6.935-7.755,6.935-19.36t-6.935-19.37a22.165,22.165,0,0,0-17.21-7.76q-9.35,0-14.589,6.17h0Zm0,20.96a11.192,11.192,0,0,1,2.979-8.12,11.438,11.438,0,0,1,15.617,0,12.539,12.539,0,0,1,0,16.23,11.411,11.411,0,0,1-15.617,0A11.168,11.168,0,0,1,553.684,1766.92Zm96.783,6.26a27.012,27.012,0,0,0,.72-6.37q0-11.61-7.5-19.31t-19.007-7.71q-11.921,0-19.624,7.81a26.552,26.552,0,0,0-7.706,19.42q0,11.715,7.86,19.37t20.908,7.65q14.487,0,22.09-9.55l-12.329-8.63a13.118,13.118,0,0,1-9.35,3.59q-8.939,0-11.507-6.27h35.446Zm-25.583-19q7.6,0,9.658,7.19H614.815q2.159-7.185,10.069-7.19h0Zm50.242,11.09v-24.04H658.481v51.37h13.151l19.933-24.04v24.04h16.644v-51.37H695.058Zm83.221-24.04-11.918,18.49-11.816-18.49H718.071v51.37h16.542v-24.66L745.5,1784.9h1.849l10.994-17.06v24.76h16.439v-51.37H758.347Zm50.755,29.8-10.583-29.8h-18.8l20.343,50.55a8.714,8.714,0,0,1-4.418,4.21,22.352,22.352,0,0,1-8.116,1.13v16.03q23.219,1.125,31.234-22.09l17.363-49.83H817.218Zm106.339-29.8H898.386v35.24H886.673v-35.24h-16.85v35.24H858.11v-35.24H841.055v51.37h65.653v13.77h16.336v-29.9h-7.6v-35.24Zm63.188,31.95a27.012,27.012,0,0,0,.72-6.37q0-11.61-7.5-19.31t-19.007-7.71q-11.921,0-19.624,7.81a26.552,26.552,0,0,0-7.706,19.42q0,11.715,7.86,19.37t20.908,7.65q14.487,0,22.09-9.55l-12.329-8.63a13.118,13.118,0,0,1-9.35,3.59q-8.939,0-11.507-6.27h35.446Zm-25.583-19q7.6,0,9.658,7.19H942.977q2.159-7.185,10.069-7.19h0Zm72.074,36.27a25.127,25.127,0,0,0,9.61-9.77l-14.59-8.42c-1.72,3.43-4.69,5.14-8.94,5.14a9.657,9.657,0,0,1-7.19-2.93,11.336,11.336,0,0,1,0-15.1,9.619,9.619,0,0,1,7.19-2.93q6.165,0,8.94,5.03l14.59-8.42a25.325,25.325,0,0,0-9.61-9.66,27.061,27.061,0,0,0-13.82-3.6,26.683,26.683,0,0,0-27.328,27.13,26.683,26.683,0,0,0,27.328,27.12A27.153,27.153,0,0,0,1025.12,1790.45Zm11.15-49.22v16.34h14.9v35.03h17.05v-35.03h14.7v-16.34h-46.65Zm97.19,14.8a13.557,13.557,0,0,0-4.62-10.79q-4.62-4.005-13.25-4.01h-26.92v51.37h28.66q8.73,0,13.36-4a13.571,13.571,0,0,0,4.62-10.79,11.714,11.714,0,0,0-7.19-11.41A11.727,11.727,0,0,0,1133.46,1756.03Zm-16.33,1.44q0,3.285-4.11,3.28H1105v-6.78h8.02q4.11,0,4.11,3.5h0ZM1105,1779.66v-6.99h9.35q4.005,0,4.01,3.39,0,3.6-4.01,3.6H1105Zm73.36-33.7q-5.235-6.165-14.59-6.17a22.172,22.172,0,0,0-17.21,7.76q-6.93,7.755-6.93,19.37t6.93,19.36a22.14,22.14,0,0,0,17.21,7.76q9.345,0,14.59-6.16v4.72h17.06v-51.37h-17.06v4.73Zm-21.57,20.96a11.18,11.18,0,0,1,2.98-8.12,11.429,11.429,0,0,1,15.61,0,12.539,12.539,0,0,1,0,16.23,11.4,11.4,0,0,1-15.61,0A11.156,11.156,0,0,1,1156.79,1766.92Z" transform="translate(-470.062 -1720.19)"/>
</svg>
