<svg xmlns="http://www.w3.org/2000/svg" xmlns:xlink="http://www.w3.org/1999/xlink" version="1.1" id="Layer_1" x="0px" y="0px" viewBox="0 0 512.003 512.003" style="enable-background:new 0 0 512.003 512.003;" xml:space="preserve" width="512" height="512">
<g>
	<path d="M256.001,223.421c9.752,0,16.548,5.289,16.548,10.035c0,4.142,3.358,7.5,7.5,7.5s7.5-3.358,7.5-7.5   c0-12.04-10.196-21.835-24.258-24.382v-1.169c0-4.142-3.358-7.5-7.5-7.5c-4.142,0-7.5,3.358-7.5,7.5v1.244   c-13.845,2.664-23.839,12.387-23.839,24.307c0,19.53,18.209,25.853,29.088,29.63c16.264,5.647,19.008,9.333,19.008,15.46   c0,4.747-6.796,10.035-16.548,10.035c-9.752,0-16.548-5.289-16.548-10.035c0-4.142-3.358-7.5-7.5-7.5s-7.5,3.358-7.5,7.5   c0,11.92,9.994,21.643,23.839,24.307v1.244c0,4.142,3.358,7.5,7.5,7.5c4.142,0,7.5-3.358,7.5-7.5v-1.169   c14.061-2.547,24.258-12.342,24.258-24.382c0-19.53-18.209-25.853-29.088-29.63c-16.264-5.647-19.008-9.333-19.008-15.46   C239.453,228.71,246.249,223.421,256.001,223.421z"/>
	<path d="M15.518,263.502c4.142,0,7.5-3.358,7.5-7.5c0-54.196,19.018-106.978,53.551-148.622   c30.625-36.932,72.031-63.564,117.874-76.128L176.257,48.16c-3.034,2.82-3.206,7.566-0.386,10.6   c1.478,1.589,3.483,2.393,5.494,2.393c1.828,0,3.661-0.665,5.105-2.007l39.381-36.616c2.081-1.935,2.89-4.878,2.09-7.604   s-3.071-4.766-5.867-5.27L169.154,0.12c-4.078-0.734-7.977,1.975-8.711,6.051c-0.734,4.077,1.975,7.977,6.051,8.711l18.799,3.387   c-46.731,13.922-88.84,41.631-120.271,79.535c-36.76,44.33-57.004,100.511-57.004,158.196   C8.018,260.144,11.375,263.502,15.518,263.502z"/>
	<path d="M505.832,160.443c-4.08-0.734-7.977,1.976-8.711,6.051l-3.387,18.799c-13.922-46.731-41.631-88.84-79.535-120.271   c-44.33-36.76-100.511-57.004-158.196-57.004c-4.142,0-7.5,3.358-7.5,7.5s3.358,7.5,7.5,7.5   c54.196,0,106.978,19.018,148.622,53.551c36.932,30.626,63.564,72.031,76.128,117.874l-16.908-18.185   c-2.82-3.034-7.566-3.206-10.6-0.386c-3.034,2.82-3.206,7.566-0.386,10.6l36.616,39.381c1.44,1.549,3.44,2.393,5.493,2.393   c0.704,0,1.415-0.099,2.111-0.303c2.726-0.8,4.766-3.071,5.27-5.867l9.536-52.921C512.617,165.078,509.908,161.178,505.832,160.443   z"/>
	<path d="M496.485,248.502c-4.142,0-7.5,3.358-7.5,7.5c0,54.196-19.018,106.978-53.551,148.622   c-30.625,36.932-72.03,63.563-117.872,76.127l18.184-16.907c3.034-2.82,3.206-7.566,0.386-10.6c-2.82-3.034-7.566-3.206-10.6-0.386   l-39.381,36.617c-2.081,1.934-2.89,4.878-2.09,7.604s3.071,4.766,5.867,5.27l52.921,9.535c0.45,0.081,0.897,0.12,1.339,0.12   c3.56,0,6.719-2.544,7.373-6.171c0.734-4.077-1.975-7.977-6.051-8.711l-18.799-3.388c46.731-13.922,88.84-41.632,120.272-79.535   c36.76-44.33,57.004-100.511,57.004-158.196C503.985,251.86,500.627,248.502,496.485,248.502z"/>
	<path d="M256.001,488.985c-54.196,0-106.978-19.018-148.622-53.551c-36.932-30.626-63.564-72.031-76.128-117.874l16.908,18.185   c2.82,3.034,7.566,3.206,10.6,0.386c3.034-2.82,3.206-7.566,0.386-10.6L22.53,286.151c-1.934-2.08-4.877-2.887-7.604-2.09   c-2.726,0.8-4.766,3.071-5.27,5.867L0.12,342.849c-0.734,4.077,1.975,7.977,6.051,8.711c0.45,0.081,0.897,0.12,1.339,0.12   c3.56,0,6.719-2.545,7.373-6.171l3.387-18.799c13.922,46.731,41.631,88.84,79.535,120.271   c44.33,36.76,100.511,57.004,158.196,57.004c4.142,0,7.5-3.357,7.5-7.5S260.144,488.985,256.001,488.985z"/>
	<path d="M334.087,376.621l28.522,22.184c2.758,2.145,6.632,2.1,9.341-0.105c4.882-3.977,9.611-8.247,14.056-12.692   c4.446-4.446,8.717-9.176,12.692-14.057c2.207-2.709,2.25-6.583,0.105-9.341l-22.183-28.521   c9.545-14.7,16.206-30.804,19.855-48.006l35.885-4.486c3.467-0.433,6.176-3.204,6.531-6.679c0.64-6.264,0.965-12.627,0.965-18.915   s-0.325-12.651-0.965-18.915c-0.355-3.476-3.063-6.246-6.531-6.679l-35.885-4.486c-3.649-17.202-10.31-33.306-19.855-48.006   l22.184-28.522c2.145-2.758,2.101-6.632-0.105-9.341c-3.979-4.884-8.249-9.614-12.692-14.056   c-4.445-4.445-9.174-8.716-14.056-12.692c-2.709-2.207-6.583-2.25-9.341-0.105l-28.522,22.184   c-14.7-9.545-30.804-16.206-48.006-19.855l-4.486-35.885c-0.433-3.467-3.204-6.176-6.679-6.531c-12.527-1.28-25.302-1.28-37.829,0   c-3.476,0.355-6.246,3.063-6.679,6.531l-4.486,35.885c-17.202,3.649-33.307,10.31-48.006,19.855l-28.521-22.184   c-2.759-2.146-6.632-2.101-9.341,0.105c-4.882,3.977-9.611,8.248-14.057,12.692c-4.443,4.443-8.713,9.172-12.693,14.057   c-2.207,2.709-2.25,6.583-0.105,9.341l22.184,28.521c-9.545,14.699-16.206,30.803-19.854,48.005l-35.886,4.486   c-3.467,0.433-6.176,3.204-6.531,6.68c-0.64,6.264-0.965,12.627-0.965,18.915s0.325,12.651,0.965,18.915   c0.355,3.476,3.063,6.247,6.531,6.68l35.886,4.486c3.649,17.202,10.309,33.306,19.854,48.005l-22.183,28.522   c-2.146,2.758-2.102,6.632,0.105,9.341c3.977,4.882,8.248,9.611,12.693,14.057c4.446,4.446,9.176,8.717,14.057,12.692   c2.708,2.207,6.582,2.25,9.341,0.105l28.521-22.183c14.699,9.545,30.803,16.206,48.005,19.854l4.486,35.886   c0.433,3.467,3.204,6.176,6.68,6.531c6.264,0.64,12.627,0.965,18.915,0.965c6.287,0,12.651-0.325,18.915-0.965   c3.476-0.355,6.247-3.063,6.68-6.531l4.486-35.886C303.283,392.826,319.387,386.166,334.087,376.621z M278.038,382.75   c-3.253,0.562-5.756,3.185-6.165,6.46l-4.408,35.26c-7.643,0.513-15.285,0.513-22.928,0l-4.408-35.26   c-0.409-3.275-2.912-5.898-6.165-6.46c-18.912-3.267-36.418-10.508-52.033-21.521c-2.697-1.902-6.322-1.817-8.927,0.209   l-28.023,21.795c-2.883-2.52-5.688-5.142-8.379-7.833c-2.691-2.691-5.313-5.496-7.833-8.379l21.795-28.023   c2.027-2.605,2.111-6.23,0.209-8.927c-11.013-15.614-18.254-33.12-21.521-52.032c-0.562-3.253-3.185-5.756-6.46-6.165l-35.26-4.408   c-0.256-3.821-0.386-7.658-0.386-11.464s0.129-7.643,0.386-11.464l35.26-4.408c3.275-0.409,5.898-2.912,6.46-6.165   c3.267-18.912,10.508-36.418,21.521-52.033c1.903-2.697,1.818-6.322-0.209-8.927l-21.796-28.023   c2.521-2.884,5.143-5.689,7.833-8.379c2.691-2.691,5.496-5.313,8.379-7.833l28.023,21.796c2.606,2.027,6.23,2.111,8.927,0.209   c15.614-11.014,33.121-18.254,52.033-21.521c3.253-0.562,5.756-3.185,6.165-6.46l4.408-35.26c7.642-0.513,15.285-0.513,22.927,0   l4.408,35.26c0.409,3.276,2.912,5.898,6.165,6.46c18.912,3.267,36.418,10.508,52.033,21.521c2.697,1.903,6.322,1.818,8.927-0.209   l28.023-21.795c2.883,2.521,5.688,5.142,8.379,7.833c2.69,2.69,5.311,5.494,7.833,8.378l-21.795,28.023   c-2.027,2.605-2.111,6.23-0.209,8.927c11.014,15.615,18.254,33.122,21.521,52.033c0.562,3.253,3.185,5.756,6.46,6.165l35.26,4.408   c0.256,3.821,0.386,7.657,0.386,11.463s-0.129,7.643-0.386,11.463l-35.26,4.408c-3.276,0.409-5.898,2.912-6.46,6.165   c-3.267,18.912-10.508,36.418-21.521,52.033c-1.902,2.697-1.818,6.322,0.209,8.927l21.795,28.023   c-2.52,2.883-5.142,5.688-7.833,8.379c-2.691,2.691-5.496,5.313-8.379,7.833l-28.023-21.795c-2.605-2.026-6.229-2.11-8.927-0.209   C314.456,372.242,296.95,379.483,278.038,382.75z"/>
	<path d="M198.954,198.954c27.506-27.506,70.708-31.452,102.727-9.385c3.411,2.351,8.082,1.491,10.432-1.919   c2.351-3.411,1.492-8.081-1.919-10.432c-37.979-26.176-89.222-21.496-121.846,11.129c-32.624,32.625-37.304,83.868-11.129,121.846   c1.455,2.111,3.798,3.245,6.182,3.244c1.467,0,2.95-0.43,4.25-1.325c3.411-2.351,4.27-7.021,1.919-10.432   C167.501,269.663,171.448,226.46,198.954,198.954z"/>
	<path d="M334.785,201.81c-2.351-3.41-7.02-4.27-10.432-1.919c-3.411,2.351-4.27,7.021-1.919,10.432   c22.067,32.018,18.121,75.221-9.385,102.727c-27.506,27.506-70.709,31.452-102.727,9.385c-3.411-2.352-8.082-1.491-10.432,1.919   c-2.351,3.411-1.492,8.081,1.919,10.432c16.446,11.335,35.375,16.883,54.207,16.883c24.656,0,49.142-9.515,67.639-28.012   C356.28,291.031,360.96,239.788,334.785,201.81z"/>
</g>
</svg>