<svg version="1.1" id="Capa_1" xmlns="http://www.w3.org/2000/svg" xmlns:xlink="http://www.w3.org/1999/xlink" x="0px" y="0px"
	 viewBox="0 0 512 512" style="enable-background:new 0 0 512 512;" xml:space="preserve">
<g>
	<g>
		<path d="M511.99,340.816c-0.003-0.156-0.01-0.311-0.023-0.468c-0.008-0.103-0.021-0.204-0.034-0.306
			c-0.018-0.138-0.037-0.275-0.063-0.414c-0.021-0.119-0.049-0.238-0.076-0.356c-0.027-0.114-0.056-0.229-0.088-0.343
			c-0.04-0.139-0.086-0.274-0.133-0.409c-0.032-0.093-0.064-0.185-0.102-0.276c-0.059-0.15-0.125-0.298-0.193-0.443
			c-0.025-0.052-0.043-0.105-0.069-0.157l-20-40.001c-0.015-0.028-0.032-0.054-0.046-0.082c-0.072-0.139-0.15-0.273-0.23-0.406
			c-0.052-0.087-0.102-0.174-0.157-0.258c-0.07-0.108-0.146-0.212-0.223-0.316c-0.073-0.1-0.145-0.201-0.223-0.296
			c-0.065-0.08-0.133-0.155-0.201-0.232c-0.096-0.108-0.189-0.218-0.29-0.319c-0.064-0.064-0.131-0.123-0.196-0.185
			c-0.109-0.104-0.219-0.207-0.334-0.303c-0.077-0.065-0.159-0.124-0.239-0.186c-0.107-0.082-0.214-0.167-0.326-0.244
			c-0.108-0.074-0.222-0.141-0.334-0.209c-0.089-0.055-0.175-0.111-0.265-0.161c-0.142-0.079-0.29-0.149-0.438-0.22
			c-0.066-0.031-0.131-0.065-0.197-0.095c-0.161-0.071-0.326-0.132-0.492-0.19c-0.061-0.022-0.12-0.047-0.182-0.067
			c-0.158-0.052-0.32-0.095-0.484-0.137c-0.075-0.018-0.15-0.041-0.225-0.058c-0.144-0.031-0.289-0.055-0.436-0.078
			c-0.103-0.017-0.205-0.034-0.309-0.047c-0.122-0.015-0.246-0.022-0.371-0.03c-0.131-0.01-0.261-0.018-0.393-0.021
			c-0.039-0.001-0.078-0.006-0.119-0.006h-167c-0.052,0-0.102,0.007-0.153,0.008c-0.14,0.003-0.278,0.011-0.418,0.02
			c-0.115,0.01-0.23,0.02-0.343,0.033c-0.123,0.015-0.243,0.034-0.365,0.055c-0.125,0.021-0.25,0.045-0.373,0.072
			c-0.109,0.025-0.217,0.055-0.325,0.084c-0.128,0.034-0.254,0.069-0.378,0.11c-0.107,0.036-0.213,0.076-0.318,0.116
			c-0.119,0.046-0.237,0.091-0.353,0.142c-0.112,0.05-0.223,0.105-0.333,0.161c-0.103,0.051-0.205,0.102-0.306,0.158
			c-0.117,0.065-0.232,0.137-0.345,0.209c-0.089,0.057-0.178,0.112-0.264,0.172c-0.113,0.078-0.223,0.163-0.332,0.248
			c-0.084,0.065-0.168,0.131-0.248,0.199c-0.1,0.084-0.195,0.174-0.291,0.264c-0.087,0.082-0.173,0.165-0.256,0.252
			c-0.08,0.083-0.158,0.17-0.235,0.258c-0.092,0.105-0.181,0.211-0.267,0.32c-0.031,0.041-0.066,0.076-0.098,0.118l-29.999,40.001
			c-0.032,0.044-0.06,0.09-0.091,0.135c-0.085,0.118-0.166,0.238-0.244,0.362c-0.057,0.089-0.111,0.179-0.164,0.271
			c-0.068,0.119-0.133,0.24-0.195,0.364c-0.051,0.101-0.101,0.201-0.146,0.303c-0.053,0.118-0.101,0.237-0.146,0.357
			c-0.044,0.112-0.086,0.225-0.124,0.338c-0.038,0.114-0.071,0.23-0.104,0.347c-0.034,0.123-0.067,0.246-0.096,0.37
			c-0.025,0.111-0.045,0.223-0.066,0.336c-0.024,0.133-0.045,0.268-0.061,0.401c-0.014,0.107-0.023,0.215-0.031,0.323
			c-0.012,0.143-0.019,0.284-0.022,0.426c-0.002,0.057-0.009,0.111-0.009,0.168V501c0,4.143,3.357,7.5,7.5,7.5h217
			c4.143,0,7.5-3.357,7.5-7.5V340.998C512,340.938,511.992,340.878,511.99,340.816z M479.865,308.497l12.5,25.001h-74.744
			l-3.125-25.001H479.865z M392.621,308.497h6.758l3.125,25.001h-13.008L392.621,308.497z M388.5,348.498h15V373.5h-15V348.498z
			 M321.25,308.497h56.254l-3.125,25.001H302.5L321.25,308.497z M497,493.5H295.001V348.498H373.5V381c0,4.143,3.357,7.5,7.5,7.5h30
			c4.143,0,7.5-3.357,7.5-7.5v-32.502H497V493.5z"/>
	</g>
</g>
<g>
	<g>
		<path d="M431.044,77.456C383.353,29.765,319.945,3.5,252.5,3.5S121.646,29.765,73.956,77.456C26.265,125.146,0,188.555,0,256
			s26.265,130.853,73.956,178.544C121.646,482.235,185.055,508.5,252.5,508.5c1.721,0,3.436-0.018,5.148-0.052
			c4.142-0.082,7.432-3.507,7.349-7.647c-0.082-4.142-3.475-7.469-7.647-7.349c-1.612,0.032-3.229,0.048-4.85,0.048
			c-44.559,0-87.236-12.203-124.241-35.003H166.5c20.678,0,37.5-16.822,37.5-37.5c0-20.678-16.822-37.5-37.5-37.5h-40.351
			c4.718-6.272,7.518-14.065,7.518-22.5c0-20.678-16.822-37.5-37.5-37.5H24.692C18.315,301.861,15,279.186,15,256
			c0-63.439,24.704-123.08,69.563-167.938C129.42,43.204,189.061,18.5,252.5,18.5c19.654,0,38.941,2.377,57.54,6.983
			c-6.302,6.794-10.039,15.844-10.039,25.512c0,8.435,2.8,16.229,7.518,22.5h-70.353c-20.678,0-37.5,16.822-37.5,37.5
			s16.822,37.5,37.5,37.5h30.353c-4.718,6.271-7.518,14.065-7.518,22.5s2.8,16.229,7.518,22.5h-90.355
			c-20.678,0-37.5,16.822-37.5,37.5s16.822,37.5,37.5,37.5h312.51c-0.204,3.937-0.499,7.862-0.892,11.749
			c-0.417,4.121,2.586,7.8,6.707,8.217c0.257,0.026,0.512,0.039,0.764,0.039c3.803,0,7.063-2.882,7.453-6.746
			C504.565,273.255,505,264.591,505,256C505,188.555,478.735,125.146,431.044,77.456z M96.167,338.497
			c12.406,0,22.5,10.094,22.5,22.5s-10.094,22.5-22.5,22.5c-4.143,0-7.5,3.357-7.5,7.5c0,4.142,3.357,7.5,7.5,7.5H166.5
			c12.406,0,22.5,10.094,22.5,22.5s-10.094,22.5-22.5,22.5h-59.836c-7.701-6.015-15.082-12.54-22.102-19.56
			c-24.627-24.627-43.165-53.718-54.89-85.44H96.167z M177.163,253.495c-12.406,0-22.5-10.094-22.5-22.5s10.094-22.5,22.5-22.5
			h120.338c4.143,0,7.5-3.357,7.5-7.5s-3.357-7.5-7.5-7.5c-12.406,0-22.5-10.094-22.5-22.5s10.094-22.5,22.5-22.5
			c4.143,0,7.5-3.357,7.5-7.5s-3.357-7.5-7.5-7.5h-60.335c-12.406,0-22.5-10.094-22.5-22.5s10.094-22.5,22.5-22.5h100.335
			c4.143,0,7.5-3.357,7.5-7.5s-3.357-7.5-7.5-7.5c-12.406,0-22.5-10.094-22.5-22.5c0-8.747,5.101-16.645,12.89-20.331
			c34.488,11.502,66.09,30.941,92.547,57.398c44.266,44.266,68.889,102.932,69.532,165.433H177.163z"/>
	</g>
</g>
<g>
</g>
<g>
</g>
<g>
</g>
<g>
</g>
<g>
</g>
<g>
</g>
<g>
</g>
<g>
</g>
<g>
</g>
<g>
</g>
<g>
</g>
<g>
</g>
<g>
</g>
<g>
</g>
<g>
</g>
</svg>
