<svg xmlns="http://www.w3.org/2000/svg" width="340.594" height="118.5" viewBox="0 0 340.594 118.5">
  <defs>
    <style>
      .cls-1 {
        fill: none;
        stroke: #fff;
        stroke-width: 1px;
        fill-rule: evenodd;
        opacity: 0.2;
      }
    </style>
  </defs>
  <path id="icon-links.svg" class="cls-1" d="M255.768,570.811H240.612V684.885h64.371V670.544H255.768V570.811ZM332.522,585.8a9.105,9.105,0,0,0,2.77-6.681,9.383,9.383,0,0,0-2.77-6.763,8.988,8.988,0,0,0-6.682-2.851A9.167,9.167,0,0,0,319,572.359a9.37,9.37,0,0,0-2.77,6.763A9.094,9.094,0,0,0,319,585.8a9.287,9.287,0,0,0,6.844,2.771A9.1,9.1,0,0,0,332.522,585.8Zm0.326,99.082V603.4H318.67v81.481h14.178ZM368.7,615.137V603.4H354.52v81.481H368.7V641.7q0-13.689,6.519-20.289t17.111-6.6q9.448,0,14.829,5.459t5.378,15.4v49.215h14.178v-50.03q0-15.48-8.637-24.526T395.1,601.285q-17.764,0-26.4,13.852h0Zm106.414,27.7L514.059,603.4H495.807l-35.2,36.014V570.811H446.43V684.885h14.177V646.263l37.156,38.622h17.6Zm63.719-25.5a17.964,17.964,0,0,1,10.267-2.852q13.035,0,17.437,10.43l11.9-6.682a28.733,28.733,0,0,0-11.652-12.467,34.663,34.663,0,0,0-17.681-4.481q-12.387,0-20.615,6.844a21.688,21.688,0,0,0-8.23,17.438q0,8.149,4.726,13.363a26.832,26.832,0,0,0,11.407,7.5q6.681,2.286,13.363,3.993a42.47,42.47,0,0,1,11.408,4.563q4.725,2.853,4.726,7.578a9.054,9.054,0,0,1-4.563,8.393,22.531,22.531,0,0,1-11.571,2.688,23.471,23.471,0,0,1-12.874-3.422,17.2,17.2,0,0,1-7.333-9.289l-12.222,7.008a29.127,29.127,0,0,0,12.059,13.852Q537.85,687,549.748,687q13.36,0,21.919-6.681a21.407,21.407,0,0,0,8.555-17.763q0-8.311-4.726-13.608a25.917,25.917,0,0,0-11.407-7.5q-6.684-2.2-13.363-3.912a42.312,42.312,0,0,1-11.407-4.563q-4.728-2.849-4.726-7.578A9.163,9.163,0,0,1,538.83,617.337Z" transform="translate(-240.125 -569)"/>
</svg>
