<svg xmlns="http://www.w3.org/2000/svg" width="354.937" height="113.469" viewBox="0 0 354.937 113.469">
  <defs>
    <style>
      .cls-1 {
        fill: none;
        stroke: #fff;
        stroke-width: 1px;
        fill-rule: evenodd;
        opacity: 0.1;
      }
    </style>
  </defs>
  <path id="icon-speed.svg" class="cls-1" d="M61.351,898.306q8.948-7.127,8.95-19.789a26.1,26.1,0,0,0-2.207-11.124,18.644,18.644,0,0,0-6.743-7.744,51.46,51.46,0,0,0-8.337-4.609A99.642,99.642,0,0,0,42.961,851.6q-8.707-2.582-11.708-4.548t-3-4.793a4.956,4.956,0,0,1,2.023-4.057,9.451,9.451,0,0,1,5.946-1.6q9.316,0,13.364,9.588l18.39-10.817a32.408,32.408,0,0,0-12.751-14.628A36.25,36.25,0,0,0,36.1,815.706q-12.753,0-21.271,7.375T6.3,842.379q0,11.063,6.866,17.27T31.8,869.3q8.336,2.337,10.789,3.318,5.761,2.337,5.762,6.147,0,5.779-10.053,5.777-12.138,0-16.919-11.431L2.625,884.048a30.475,30.475,0,0,0,12.505,15.61q8.948,5.779,22.559,5.778Q52.4,905.436,61.351,898.306Zm37.025-50.519v-5.654H78.024v86.042H98.376V897.938q6.252,7.374,17.409,7.375a26.4,26.4,0,0,0,20.536-9.281q8.275-9.278,8.276-23.169t-8.276-23.17a26.413,26.413,0,0,0-20.536-9.28q-11.157,0-17.409,7.374h0Zm0,25.076a13.4,13.4,0,0,1,3.555-9.711,13.618,13.618,0,0,1,18.636,0,15.04,15.04,0,0,1,0,19.421,13.615,13.615,0,0,1-18.636,0A13.4,13.4,0,0,1,98.376,872.863Zm115.49,7.5a32.584,32.584,0,0,0,.858-7.62q0-13.89-8.95-23.109t-22.681-9.218q-14.224,0-23.417,9.341t-9.2,23.231q0,14.014,9.379,23.17t24.95,9.158q17.286,0,26.359-11.431l-14.712-10.326a15.592,15.592,0,0,1-11.157,4.3q-10.667,0-13.731-7.5h42.3Zm-30.528-22.739q9.071,0,11.524,8.6H171.323q2.574-8.6,12.015-8.6h0ZM283.626,880.36a32.53,32.53,0,0,0,.858-7.62q0-13.89-8.95-23.109t-22.681-9.218q-14.223,0-23.417,9.341t-9.195,23.231q0,14.014,9.379,23.17t24.949,9.158q17.287,0,26.36-11.431l-14.712-10.326a15.592,15.592,0,0,1-11.157,4.3q-10.666,0-13.732-7.5h42.3ZM253.1,857.621q9.072,0,11.525,8.6h-23.54q2.576-8.6,12.015-8.6h0Zm83.124-9.834q-6.252-7.374-17.409-7.374a26.41,26.41,0,0,0-20.536,9.28Q290,858.975,290,872.863t8.276,23.169a26.4,26.4,0,0,0,20.536,9.281q11.156,0,17.409-7.375v5.654h20.352V817.55H336.222v30.237Zm-25.746,25.076a13.4,13.4,0,0,1,3.555-9.711,13.618,13.618,0,0,1,18.636,0,15.04,15.04,0,0,1,0,19.421,13.615,13.615,0,0,1-18.636,0A13.4,13.4,0,0,1,310.476,872.863Z" transform="translate(-2.125 -815.219)"/>
</svg>
