<svg version="1.1" id="Слой_1" xmlns="http://www.w3.org/2000/svg" xmlns:xlink="http://www.w3.org/1999/xlink" x="0px" y="0px"
	 viewBox="0 0 582.5 166" style="enable-background:new 0 0 582.5 166;" xml:space="preserve">
<g style="enable-background:new    ;">
	<path style="fill:#FFFFFF;" d="M0,66.9V0h20.9v30.1c0,1,0.3,1.8,0.9,2.4c0.6,0.6,1.4,0.9,2.4,0.9H56c0.9,0,1.7-0.3,2.4-0.9
		c0.7-0.6,1-1.4,1-2.4V0h20.9v33.4c0,4.5-1.1,7.8-3.3,10c-2.2,2.2-3.9,3.3-5,3.3l8.4,20.1H59.3l-5.8-16.7H24.2c-1,0-1.8,0.3-2.4,1
		c-0.6,0.7-0.9,1.4-0.9,2.4v13.4H0z"/>
	<path style="fill:#FFFFFF;" d="M136.9,66.9L99.3,0h22.6l26.3,50.1L174.5,0H197l-37.6,66.9H136.9z"/>
	<path style="fill:#FFFFFF;" d="M216.1,66.9V25.1c0-11.1,2.8-18.1,8.4-20.9C230,1.4,236.7,0,244.5,0h26.7c7.8,0,14.5,1.4,20.1,4.2
		c5.6,2.8,8.4,9.8,8.4,20.9v41.8h-20.9V53.5c0-0.9-0.3-1.7-1-2.4c-0.7-0.7-1.4-1-2.4-1h-35.1c-1,0-1.8,0.3-2.4,1
		c-0.6,0.7-0.9,1.4-0.9,2.4v13.4H216.1z M275.4,33.4c0.9,0,1.7-0.3,2.4-0.9c0.7-0.6,1-1.4,1-2.4v-6.7c0-2.5-1-4.5-2.9-6.1
		c-2-1.5-4-2.3-6.3-2.3h-23.4c-2.2,0-4.3,0.8-6.3,2.3c-2,1.5-2.9,3.6-2.9,6.1v6.7c0,1,0.3,1.8,0.9,2.4c0.6,0.6,1.4,0.9,2.4,0.9
		H275.4z"/>
	<path style="fill:#FFFFFF;" d="M318.7,66.9V0h62.7c8.4,0,15,1.4,20.1,4.2c5,2.8,7.5,8.4,7.5,16.7v46h-20.9V24.4
		c0-2.8-0.8-5-2.3-6.8c-1.5-1.7-4.4-2.6-8.6-2.6H343c-1,0-1.8,0.3-2.4,1c-0.6,0.7-0.9,1.4-0.9,2.4v48.5H318.7z"/>
	<path style="fill:#FFFFFF;" d="M458.1,66.9V18.4c0-0.9-0.3-1.7-1-2.4c-0.7-0.7-1.4-1-2.4-1H428V0h80.2v15h-26.7c-1,0-1.8,0.3-2.4,1
		c-0.6,0.7-0.9,1.4-0.9,2.4v48.5H458.1z"/>
</g>
<g style="enable-background:new    ;">
	<path style="fill:#FFFFFF;" d="M20.9,166c-5.6,0-10.4-1.4-14.6-4.2c-4.2-2.8-6.3-7-6.3-12.5V99.2h20.9v48.5c0,1,0.3,1.8,0.9,2.4
		c0.6,0.6,1.4,0.9,2.4,0.9h22.6c0.9,0,1.7-0.3,2.4-0.9c0.7-0.6,1-1.4,1-2.4V99.2H71v48.5c0,1,0.3,1.8,0.9,2.4
		c0.6,0.6,1.4,0.9,2.4,0.9h22.6c0.9,0,1.7-0.3,2.4-0.9c0.7-0.6,1-1.4,1-2.4V99.2h20.9v50.1c0,5.6-2.1,9.8-6.3,12.5
		c-4.2,2.8-9.1,4.2-14.6,4.2H71c-3.9,0-7.4-2.2-10.4-6.7c-3.1,4.5-6.5,6.7-10.4,6.7H20.9z"/>
	<path style="fill:#FFFFFF;" d="M140.2,166v-41.8c0-11.1,2.8-18.1,8.4-20.9c5.6-2.8,12.3-4.2,20.1-4.2h26.7c7.8,0,14.5,1.4,20.1,4.2
		c5.6,2.8,8.4,9.8,8.4,20.9V166h-20.9v-13.4c0-0.9-0.3-1.7-1-2.4c-0.7-0.7-1.4-1-2.4-1h-35.1c-1,0-1.8,0.3-2.4,1
		c-0.6,0.7-0.9,1.4-0.9,2.4V166H140.2z M199.6,132.6c0.9,0,1.7-0.3,2.4-0.9c0.7-0.6,1-1.4,1-2.4v-6.7c0-2.5-1-4.5-2.9-6.1
		c-2-1.5-4-2.3-6.3-2.3h-23.4c-2.2,0-4.3,0.8-6.3,2.3c-2,1.5-2.9,3.6-2.9,6.1v6.7c0,1,0.3,1.8,0.9,2.4c0.6,0.6,1.4,0.9,2.4,0.9
		H199.6z"/>
	<path style="fill:#FFFFFF;" d="M255.4,166c-3.9,0-7.1-1.3-9.6-3.8c-2.5-2.5-3.8-5.7-3.8-9.6V99.2h20.9v48.5c0,1.1,0.3,2,0.8,2.5
		c0.6,0.6,1.4,0.8,2.5,0.8h42.6v15H255.4z"/>
	<path style="fill:#FFFFFF;" d="M339.6,166c-3.9,0-7.1-1.3-9.6-3.8c-2.5-2.5-3.8-5.7-3.8-9.6V99.2h20.9v48.5c0,1.1,0.3,2,0.8,2.5
		c0.6,0.6,1.4,0.8,2.5,0.8h42.6v15H339.6z"/>
	<path style="fill:#FFFFFF;" d="M428,166c-4.5,0-8.4-1.7-11.7-5s-5-7.2-5-11.7V99.2h71.9v15h-47.6c-1,0-1.8,0.3-2.4,1
		c-0.6,0.7-0.9,1.4-0.9,2.4v5c0,1,0.3,1.8,0.9,2.4c0.6,0.6,1.4,0.9,2.4,0.9h44.3v11.9h-44.3c-1,0-1.8,0.3-2.4,1
		c-0.6,0.7-0.9,1.4-0.9,2.4v4.8c0,1,0.3,1.8,0.9,2.4c0.6,0.6,1.4,0.9,2.4,0.9h47.6V166H428z"/>
	<path style="fill:#FFFFFF;" d="M532.3,166v-48.5c0-0.9-0.3-1.7-1-2.4c-0.7-0.7-1.4-1-2.4-1h-26.7v-15h80.2v15h-26.7
		c-1,0-1.8,0.3-2.4,1c-0.6,0.7-0.9,1.4-0.9,2.4V166H532.3z"/>
</g>
</svg>
